# xmcd
# Copyright (C) 1995-1998 Ti Kan
#
# Track frame offsets:
#       150
#       18833
#       33147
#       51183
#       71526
#       91926
#       110715
#       128635
#       145155
#       162085
#       181670
#       198951
#       216739
#       233821
#       250687
#       268135
#
# Disc length: 3828 seconds
#
# Revision: 0
# Processed by: cddbd v1.5.2PL0 Copyright (c) Steve Scherf et al.
# Submitted via: CD-Import v1.0
#
DISCID=da0ef210
DTITLE=New Order - Singles Cd 2
DYEAR=2005
DGENRE=
TTITLE0=Blue Monday '88
TTITLE1=Fine Time
TTITLE2=Round And Round
TTITLE3=Run
TTITLE4=World In Motion
TTITLE5=Regret
TTITLE6=Ruined In A Day
TTITLE7=World (Price Of Love)
TTITLE8=Spooky
TTITLE9=Crystal
TTITLE10=60 Miles An Hour
TTITLE11=Here To Stay
TTITLE12=Krafty
TTITLE13=Jetstream
TTITLE14=Waiting For The Sirens' Call
TTITLE15=Turn
EXTD=
EXTT0=
EXTT1=
EXTT2=
EXTT3=
EXTT4=
EXTT5=
EXTT6=
EXTT7=
EXTT8=
EXTT9=
EXTT10=
EXTT11=
EXTT12=
EXTT13=
EXTT14=
EXTT15=
PLAYORDER=
